<?xml version="1.0" encoding="utf-8"?>
<!-- Generator: Adobe Illustrator 16.0.0, SVG Export Plug-In . SVG Version: 6.00 Build 0)  -->
<!DOCTYPE svg PUBLIC "-//W3C//DTD SVG 1.1//EN" "http://www.w3.org/Graphics/SVG/1.1/DTD/svg11.dtd">
<svg version="1.1" id="Layer_1" xmlns="http://www.w3.org/2000/svg" xmlns:xlink="http://www.w3.org/1999/xlink" x="0px" y="0px"
	 width="241px" height="229.32px" viewBox="0 0 241 229.32" enable-background="new 0 0 241 229.32" xml:space="preserve">
<g>
	<path fill="#FFFFFF" d="M51.775,145.79c-2.723,0-4.93,2.207-4.93,4.923v20.244c0,2.722,2.207,4.923,4.93,4.923
		c2.716,0,4.923-2.201,4.923-4.923v-20.244C56.698,147.997,54.491,145.79,51.775,145.79z"/>
	<path fill="#FFFFFF" d="M97.258,133.341c-2.723,0-4.923,2.204-4.923,4.923v32.692c0,2.722,2.2,4.923,4.923,4.923
		s4.923-2.201,4.923-4.923v-32.692C102.181,135.545,99.98,133.341,97.258,133.341z"/>
	<path fill="#FFFFFF" d="M74.52,122.359c-2.608,0-4.726,2.117-4.726,4.726v43.873c0,2.608,2.117,4.725,4.726,4.725
		s4.725-2.117,4.725-4.725v-43.873C79.244,124.476,77.128,122.359,74.52,122.359z"/>
	<path fill="#FFFFFF" d="M216.874,128.026c-0.012-0.312-0.054-0.621-0.122-0.93c-0.021-0.09-0.033-0.18-0.063-0.267
		c-0.108-0.372-0.246-0.741-0.443-1.092c-0.201-0.345-0.444-0.645-0.708-0.923c-0.078-0.081-0.168-0.15-0.252-0.228
		c-0.21-0.195-0.435-0.366-0.674-0.519c-0.063-0.039-0.111-0.099-0.178-0.135L171.17,98.964V48.303c0-0.069-0.024-0.135-0.03-0.207
		c-0.012-0.291-0.048-0.582-0.114-0.869c-0.023-0.105-0.041-0.207-0.071-0.306c-0.108-0.369-0.246-0.732-0.444-1.08
		c-0.203-0.348-0.449-0.651-0.716-0.929c-0.069-0.072-0.147-0.135-0.22-0.204c-0.222-0.207-0.461-0.39-0.713-0.552
		c-0.055-0.033-0.096-0.084-0.156-0.117l-45.734-26.405c-0.051-0.03-0.111-0.039-0.162-0.069c-0.279-0.147-0.569-0.267-0.875-0.36
		c-0.084-0.024-0.168-0.057-0.252-0.078c-0.378-0.093-0.768-0.156-1.176-0.156c-0.404,0-0.795,0.063-1.172,0.156
		c-0.087,0.021-0.171,0.054-0.255,0.081c-0.31,0.093-0.6,0.213-0.882,0.363c-0.048,0.027-0.102,0.036-0.149,0.063L72.307,44.04
		c-0.051,0.027-0.087,0.072-0.135,0.102c-0.267,0.168-0.519,0.36-0.753,0.579c-0.065,0.063-0.138,0.12-0.203,0.186
		c-0.268,0.279-0.517,0.584-0.72,0.936c-0.198,0.345-0.336,0.708-0.444,1.073c-0.029,0.105-0.048,0.213-0.071,0.324
		c-0.063,0.282-0.103,0.567-0.114,0.852c-0.003,0.072-0.03,0.141-0.03,0.213v49.914l-43.264,24.972
		c-1.529,0.878-2.471,2.51-2.471,4.267v52.813c0,1.76,0.941,3.388,2.464,4.267l45.729,26.402c0.768,0.444,1.619,0.663,2.471,0.663
		c0.845,0,1.703-0.219,2.458-0.663l42.641-24.609l43.912,25.356c0.762,0.443,1.606,0.662,2.458,0.662s1.703-0.219,2.465-0.662
		l45.734-26.409c1.529-0.875,2.465-2.506,2.465-4.26v-52.813C216.898,128.143,216.874,128.085,216.874,128.026z M125.429,118.989
		V83.238l30.966,17.873L125.429,118.989z M115.583,118.926l-30.921-17.842l30.921-17.849V118.926z M161.317,92.587l-30.966-17.878
		l30.966-17.872V92.587z M125.429,66.182V30.428l30.966,17.878L125.429,66.182z M115.583,66.185L84.614,48.306l30.969-17.875V66.185
		z M110.657,74.708L79.688,92.587v-35.75L110.657,74.708z M125.429,131.042l40.806-23.557l35.9,20.718l-35.9,20.724l-19.284-11.139
		c-1.529-0.878-3.406-0.854-4.923,0.021c-0.126,0.069-0.24,0.144-0.354,0.219l-16.245,9.381V131.042z M74.766,200.993L33.954,177.43
		v-47.132l40.763-23.53l40.866,23.593v47.069L74.766,200.993z M166.234,201.74l-40.806-23.569v-19.387l19.093-11.024l19.255,11.118
		c1.522,0.881,3.405,0.881,4.923,0l38.354-22.145v41.438L166.234,201.74z"/>
</g>
</svg>
