<?xml version="1.0" encoding="utf-8"?>
<!-- Generator: Adobe Illustrator 16.0.0, SVG Export Plug-In . SVG Version: 6.00 Build 0)  -->
<!DOCTYPE svg PUBLIC "-//W3C//DTD SVG 1.1//EN" "http://www.w3.org/Graphics/SVG/1.1/DTD/svg11.dtd">
<svg version="1.1" id="Layer_1" xmlns="http://www.w3.org/2000/svg" xmlns:xlink="http://www.w3.org/1999/xlink" x="0px" y="0px"
	 width="792px" height="271px" viewBox="0 0 792 271" enable-background="new 0 0 792 271" xml:space="preserve">
<g>
	<path fill="#EDBF39" d="M280.864,70.694c-2.451,0-4.438,1.988-4.438,4.438v18.245c0,2.45,1.987,4.438,4.438,4.438
		c2.451,0,4.438-1.988,4.438-4.438V75.132C285.302,72.682,283.315,70.694,280.864,70.694z"/>
	<path fill="#EDBF39" d="M321.86,59.474c-2.451,0-4.441,1.988-4.441,4.438v29.466c0,2.45,1.99,4.438,4.441,4.438
		c2.449,0,4.437-1.988,4.437-4.438V63.912C326.296,61.461,324.309,59.474,321.86,59.474z"/>
	<path fill="#EDBF39" d="M301.362,49.574c-2.35,0-4.257,1.91-4.257,4.263v39.541c0,2.352,1.908,4.259,4.257,4.259
		c2.353,0,4.263-1.907,4.263-4.259V53.836C305.625,51.483,303.715,49.574,301.362,49.574z"/>
	<path fill="#EDBF39" d="M512.113,53.992c-0.012-0.262-0.047-0.521-0.104-0.782c-0.022-0.099-0.037-0.198-0.066-0.294
		c-0.094-0.312-0.215-0.62-0.382-0.915c-0.02-0.037-0.043-0.071-0.063-0.107c-0.17-0.281-0.367-0.533-0.585-0.762
		c-0.075-0.08-0.16-0.149-0.241-0.223c-0.188-0.172-0.388-0.326-0.6-0.461c-0.057-0.035-0.099-0.086-0.156-0.119l-41.22-23.794
		c-1.376-0.792-3.066-0.792-4.439,0L425.249,49.05l-38.996-22.516c-0.055-0.032-0.117-0.042-0.173-0.072
		c-0.229-0.12-0.468-0.218-0.719-0.297c-0.099-0.031-0.194-0.067-0.294-0.091c-0.312-0.075-0.635-0.122-0.97-0.127
		c-0.044,0-0.089,0.001-0.134,0.001c-0.33,0.006-0.647,0.051-0.956,0.125c-0.103,0.025-0.202,0.062-0.303,0.094
		c-0.247,0.078-0.481,0.174-0.707,0.292c-0.059,0.03-0.123,0.041-0.18,0.074l-39.001,22.515l-39.011-22.515
		c-1.375-0.792-3.066-0.792-4.441,0l-41.217,23.794c-1.373,0.792-2.221,2.258-2.221,3.843v47.602c0,1.585,0.848,3.05,2.221,3.843
		l41.217,23.8c0.689,0.396,1.453,0.596,2.221,0.596c0.766,0,1.533-0.201,2.22-0.596l39.004-22.516l39.008,22.516
		c0.05,0.029,0.107,0.039,0.158,0.065c0.239,0.127,0.49,0.23,0.753,0.312c0.088,0.027,0.173,0.06,0.263,0.082
		c0.336,0.082,0.684,0.137,1.045,0.137s0.709-0.056,1.046-0.138c0.086-0.021,0.167-0.052,0.252-0.078
		c0.268-0.083,0.523-0.188,0.768-0.318c0.048-0.025,0.103-0.035,0.151-0.062l39.001-22.517l39.001,22.517
		c0.687,0.396,1.451,0.596,2.219,0.596c0.767,0,1.533-0.201,2.221-0.596l41.22-23.8c1.374-0.792,2.221-2.258,2.221-3.843V54.171
		C512.136,54.11,512.116,54.054,512.113,53.992z M466.475,35.502l32.349,18.672l-32.349,18.678l-17.384-10.04
		c-1.374-0.796-3.065-0.772-4.439,0.02c-0.108,0.06-0.211,0.128-0.315,0.201l-14.642,8.454V56.733L466.475,35.502z M388.473,38.067
		l27.906,16.111l-27.906,16.109V38.067z M379.597,70.293l-27.913-16.114l27.913-16.111V70.293z M375.154,77.977l-27.902,16.108
		V61.869L375.154,77.977z M379.597,85.66v32.225l-27.914-16.111L379.597,85.66z M388.473,85.666l27.906,16.11l-27.906,16.11V85.666z
		 M392.907,77.977l27.91-16.112v32.224L392.907,77.977z M301.584,120.448L264.803,99.21V56.733l36.782-21.231L338.37,56.73v42.483
		L301.584,120.448z M466.475,120.448l-36.78-21.238V81.737l17.21-9.939l17.352,10.02c1.373,0.792,3.063,0.792,4.439,0l34.563-19.957
		V99.21L466.475,120.448z"/>
</g>
<g>
	<path fill="#4885AC" d="M65.677,180.496c-6.999-1.719-11.457-3.211-13.391-4.476c-1.934-1.267-2.893-2.967-2.893-5.117
		c0-2.141,0.785-3.86,2.373-5.161c1.574-1.299,3.736-1.949,6.479-1.949c6.815,0,13.418,2.425,19.817,7.273l8.318-12.015
		c-3.649-3.09-7.941-5.487-12.85-7.168c-4.92-1.691-9.841-2.535-14.76-2.535c-7.518,0-13.787,1.899-18.816,5.694
		c-5.027,3.799-7.535,9.185-7.535,16.177c0,6.995,1.991,12.124,5.955,15.391c3.971,3.269,10.237,5.925,18.817,7.96
		c5.411,1.33,9.029,2.651,10.853,3.947c1.828,1.304,2.741,3.062,2.741,5.271c0,2.217-0.861,3.973-2.588,5.275
		c-1.72,1.3-4.091,1.944-7.111,1.944c-6.739,0-14.088-3.474-22.024-10.431l-9.801,12.017c9.34,8.641,19.854,12.966,31.513,12.966
		c8.078,0,14.599-2.061,19.55-6.17c4.949-4.109,7.438-9.465,7.438-16.071c0-6.603-1.941-11.63-5.801-15.074
		C78.093,184.803,72.663,182.225,65.677,180.496z"/>
	<path fill="#4885AC" d="M118.986,167.061c-8.606,0-15.755,2.828-21.452,8.487c-5.691,5.653-8.537,12.593-8.537,20.814
		c0,8.218,2.846,15.142,8.537,20.762c5.697,5.623,12.846,8.436,21.452,8.436c8.603,0,15.753-2.812,21.453-8.436
		c5.691-5.62,8.529-12.544,8.529-20.762c0-8.222-2.838-15.161-8.529-20.814C134.74,169.889,127.589,167.061,118.986,167.061z
		 M129.102,207.69c-2.627,2.916-6.007,4.374-10.116,4.374c-4.113,0-7.49-1.458-10.121-4.374c-2.634-2.913-3.957-6.689-3.957-11.328
		c0-4.641,1.322-8.433,3.957-11.385c2.63-2.948,6.007-4.429,10.121-4.429c4.108,0,7.488,1.48,10.116,4.429
		c2.633,2.952,3.957,6.744,3.957,11.385C133.059,201.001,131.735,204.777,129.102,207.69z"/>
	<path fill="#4885AC" d="M180.463,211.542c-4.006,0-7.497-1.337-10.489-4.008c-2.988-2.671-4.476-6.415-4.476-11.229
		c0-4.81,1.487-8.569,4.476-11.278c2.992-2.702,6.555-4.052,10.703-4.052c2.591,0,5.213,0.597,7.847,1.788
		c2.642,1.194,4.863,2.884,6.697,5.062l8.224-10.749c-3.162-3.306-6.838-5.801-11.018-7.489c-4.185-1.687-8.314-2.526-12.391-2.526
		c-8.143,0-15.191,2.72-21.126,8.168c-5.942,5.44-8.911,12.508-8.911,21.181c0,8.68,2.931,15.71,8.808,21.085
		c5.857,5.374,13.045,8.065,21.55,8.065c8.503,0,16.41-3.795,23.713-11.385l-9.379-10.541
		C190.476,208.899,185.732,211.542,180.463,211.542z"/>
	<path fill="#4885AC" d="M215.124,144.927c-2.601,0-4.798,0.892-6.585,2.685c-1.798,1.794-2.691,3.99-2.691,6.587
		c0,2.606,0.893,4.794,2.691,6.589c1.788,1.793,3.984,2.685,6.585,2.685c2.594,0,4.788-0.892,6.587-2.685
		c1.792-1.795,2.687-3.982,2.687-6.589c0-2.597-0.895-4.793-2.687-6.587C219.911,145.818,217.718,144.927,215.124,144.927z"/>
	<rect x="207.217" y="168.01" fill="#4885AC" width="15.808" height="56.706"/>
	<path fill="#4885AC" d="M272.227,172.227c-4.357-3.443-9.977-5.166-16.868-5.166c-9.552,0-18.054,2.701-25.508,8.117l7.066,10.222
		c2.11-1.616,4.691-2.969,7.742-4.057c3.055-1.091,5.963-1.635,8.701-1.635c6.394,0,9.593,3.021,9.593,9.062v0.321h-11.801
		c-7.317,0-13.077,1.44-17.292,4.319s-6.328,7.218-6.328,13.015c0,5.798,2.038,10.436,6.114,13.914
		c4.081,3.473,9.122,5.22,15.13,5.22s11.047-2.566,15.121-7.694v6.851h14.865v-36.153
		C278.762,181.113,276.581,175.668,272.227,172.227z M262.845,203.106c0,2.885-1.077,5.183-3.212,6.904
		c-2.146,1.725-4.626,2.583-7.429,2.583c-2.815,0-4.97-0.547-6.483-1.635c-1.513-1.093-2.268-2.651-2.268-4.69
		c0-3.934,3.162-5.902,9.49-5.902h9.902V203.106z"/>
	<rect x="287.285" y="146.506" fill="#4885AC" width="15.808" height="78.21"/>
	<rect x="309.174" y="146.506" fill="#4885AC" width="15.812" height="78.21"/>
	<path fill="#4885AC" d="M357.647,203.318L343.84,168.01h-16.863c14.613,36.889,21.919,56.145,21.919,57.758
		c0,1.62-0.526,3.147-1.576,4.584c-1.058,1.439-2.323,2.156-3.799,2.156c-2.807,0-5.549-1.295-8.222-3.891l-7.165,11.697
		c4.916,4.491,10.15,6.746,15.706,6.746c4.001,0,7.645-1.067,10.9-3.218c3.275-2.139,5.68-5.15,7.226-9.009l26.349-66.824h-16.864
		L357.647,203.318z"/>
	<polygon fill="#4885AC" points="433.098,191.512 414.129,151.037 391.882,151.037 391.882,224.716 408.331,224.716 
		408.331,178.338 428.144,218.6 437.941,218.6 457.868,178.338 457.868,224.716 474.309,224.716 474.309,151.037 452.17,151.037 	
		"/>
	<path fill="#4885AC" d="M489.881,144.927c-2.603,0-4.787,0.892-6.585,2.685c-1.791,1.794-2.689,3.99-2.689,6.587
		c0,2.606,0.898,4.794,2.689,6.589c1.798,1.793,3.982,2.685,6.585,2.685c2.6,0,4.798-0.892,6.589-2.685
		c1.798-1.795,2.688-3.982,2.688-6.589c0-2.597-0.89-4.793-2.688-6.587C494.679,145.818,492.48,144.927,489.881,144.927z"/>
	<rect x="481.98" y="168.01" fill="#4885AC" width="15.806" height="56.706"/>
	<path fill="#4885AC" d="M535.813,167.061c-5.979,0-11.354,2.418-16.127,7.271v-6.322h-15.811v56.706h15.811v-31.621
		c0-4.428,1.177-7.784,3.526-10.07c2.358-2.278,5.117-3.426,8.276-3.426c6.395,0,9.592,4.359,9.592,13.074v32.043h15.81V190.25
		c0-7.028-2.016-12.653-6.062-16.87C546.789,169.169,541.786,167.061,535.813,167.061z"/>
	<path fill="#4885AC" d="M601.765,174.332c-4.36-4.854-9.979-7.271-16.861-7.271c-6.89,0-12.891,2.687-18.022,8.06
		c-5.135,5.376-7.701,12.282-7.701,20.711c0,8.432,2.643,15.499,7.913,21.188c5.261,5.695,11.257,8.541,17.971,8.541
		c6.71,0,12.279-2.773,16.701-8.331v7.487h15.817v-78.21h-15.817V174.332z M598.133,207.69c-2.567,2.916-5.678,4.374-9.332,4.374
		c-3.649,0-6.852-1.458-9.586-4.374c-2.74-2.913-4.121-6.653-4.121-11.225c0-4.566,1.341-8.396,4.013-11.488
		c2.66-3.092,5.858-4.641,9.589-4.641c3.727,0,6.87,1.531,9.438,4.585c2.559,3.06,3.843,6.888,3.843,11.487
		C601.976,201.017,600.691,204.777,598.133,207.69z"/>
	<path fill="#4885AC" d="M669.247,174.121c-5.441-4.704-12.064-7.061-19.865-7.061c-7.797,0-14.564,2.635-20.288,7.907
		c-5.736,5.268-8.592,12.368-8.592,21.292c0,8.919,2.809,16.039,8.432,21.337c5.618,5.312,12.734,7.963,21.344,7.963
		c8.606,0,16.108-3.024,22.501-9.062l-8.852-9.599c-3.588,3.727-8.148,5.591-13.704,5.591c-3.44,0-6.536-0.985-9.276-2.952
		c-2.732-1.968-4.354-4.494-4.841-7.593h41.309v-8.43C677.414,185.297,674.7,178.826,669.247,174.121z M636.523,190.668
		c0.428-3.229,1.932-5.799,4.53-7.693c2.599-1.899,5.458-2.843,8.594-2.843c3.122,0,5.77,0.911,7.953,2.737
		c2.176,1.83,3.44,4.431,3.798,7.799H636.523z"/>
	<polygon fill="#4885AC" points="743.999,148.781 746.637,148.781 746.637,156.293 748.713,156.293 748.713,148.781 
		751.352,148.781 751.352,146.983 743.999,146.983 	"/>
	<polygon fill="#4885AC" points="760.486,146.983 758.076,152.098 755.679,146.983 752.869,146.983 752.869,156.293 
		754.947,156.293 754.947,150.433 757.45,155.521 758.688,155.521 761.206,150.433 761.206,156.293 763.283,156.293 
		763.283,146.983 	"/>
	<path fill="#4885AC" d="M722.559,174.332c-4.361-4.854-9.979-7.271-16.861-7.271c-6.891,0-12.891,2.687-18.023,8.06
		c-5.134,5.376-7.7,12.282-7.7,20.711c0,8.432,2.642,15.499,7.914,21.188c5.26,5.695,11.255,8.541,17.969,8.541
		c6.711,0,12.28-2.773,16.702-8.331v7.487h15.816v-78.21h-15.816V174.332z M718.926,207.69c-2.566,2.916-5.676,4.374-9.332,4.374
		c-3.647,0-6.851-1.458-9.585-4.374c-2.739-2.913-4.121-6.653-4.121-11.225c0-4.566,1.341-8.396,4.012-11.488
		c2.662-3.092,5.858-4.641,9.59-4.641c3.726,0,6.87,1.531,9.437,4.585c2.559,3.06,3.845,6.888,3.845,11.487
		C722.771,201.017,721.484,204.777,718.926,207.69z"/>
</g>
</svg>
